<?xml version="1.0" encoding="UTF-8"?>
<!DOCTYPE svg PUBLIC "-//W3C//DTD SVG 1.1//EN" "http://www.w3.org/Graphics/SVG/1.1/DTD/svg11.dtd">
<!-- Creator: CorelDRAW X7 -->
<svg xmlns="http://www.w3.org/2000/svg" xml:space="preserve" width="1133px" height="340px" version="1.1" style="shape-rendering:geometricPrecision; text-rendering:geometricPrecision; image-rendering:optimizeQuality; fill-rule:evenodd; clip-rule:evenodd"
viewBox="0 0 1193 358"
 xmlns:xlink="http://www.w3.org/1999/xlink">
 <defs>
  <style type="text/css">
   <![CDATA[
    .str0 {stroke:#32B9F5;stroke-width:0.947732}
    .fil8 {fill:black}
    .fil4 {fill:#2CC4F6}
    .fil0 {fill:#32B9F5}
    .fil5 {fill:#38BEEF}
    .fil12 {fill:#575757}
    .fil1 {fill:#6499FE}
    .fil13 {fill:#686868}
    .fil9 {fill:#787878}
    .fil11 {fill:gray}
    .fil14 {fill:#858585}
    .fil10 {fill:#8C8C8C}
    .fil6 {fill:#ABE5FC}
    .fil7 {fill:#BCEAFC}
    .fil3 {fill:#FEFEFE}
    .fil2 {fill:white}
   ]]>
  </style>
 </defs>
 <g id="Layer_x0020_1">
  <metadata id="CorelCorpID_0Corel-Layer"/>
  <g id="_1671564975584">
   <path class="fil0 str0" d="M920 287l7 0 0 23 -7 0 0 -23zm146 15c6,-1 7,7 2,8 -5,2 -7,-6 -2,-8zm-265 16c0,1 1,1 -1,1 0,0 -2,0 -2,0 -1,0 -2,0 -3,0 -1,-3 -1,-30 0,-32 9,-1 5,-1 7,2 9,-6 18,-1 18,10 0,10 -11,15 -18,9l-1 10zm243 -31c18,-4 23,20 6,23 -17,4 -22,-20 -6,-23zm-193 0c17,-4 22,20 6,23 -17,4 -22,-20 -6,-23zm129 19c-8,6 -19,2 -19,-8 0,-10 11,-15 19,-9l1 -2 6 0c0,7 1,22 -2,27 -5,8 -15,5 -23,2l3 -5c5,2 16,6 15,-5zm-210 1c-6,9 -29,2 -22,-14 5,-11 26,-8 24,7l-18 0c2,9 12,3 13,3l3 4zm109 -20c17,-4 22,20 6,23 -17,4 -22,-19 -6,-23zm-47 2c1,-1 4,-3 7,-2l0 5c-9,1 -8,4 -8,18l-6 0 0 -23 6 0 1 2zm-56 -2l6 0 1 2c2,-2 4,-3 8,-3l0 7c-10,-1 -8,9 -8,17l-7 0 0 -23zm157 0c1,0 4,-1 5,0 2,0 1,0 1,0 0,0 1,1 1,1l0 1c3,-5 12,-3 15,1 3,4 2,15 2,20l-7 0c0,-6 2,-19 -6,-18 -6,1 -4,12 -4,18l-7 0 0 -23zm-205 1c1,-1 -2,-1 3,-1 0,-1 0,-2 0,-3l1 -3 6 0c1,2 1,4 1,6l5 0 0 6 -5 0 0 10c0,3 2,2 5,1l2 5c-4,2 -10,2 -13,-1 -2,-3 -1,-11 -1,-15l-4 -1 0 -4zm-8 22c-3,0 -1,0 -2,0l0 -2c0,0 0,0 -1,0 -2,4 -14,3 -14,-4 -1,-8 8,-7 15,-8 0,-6 -8,-4 -12,-2l-2 -5c5,-3 14,-4 18,0 4,4 3,15 3,21 -1,0 -4,0 -5,0zm313 -5c-7,10 -29,6 -29,-10 0,-18 24,-20 29,-10l-5 3c-6,-5 -17,-3 -17,7 0,5 3,8 6,9 6,2 9,-1 12,-3l4 4zm-111 -29c5,-2 7,5 3,7 -2,1 -5,0 -6,-2 -1,-2 0,-4 3,-5zm-254 24l1 0 6 -20 7 0 14 0 6 0c-1,4 -8,29 -10,30l-7 0 -7 -20 -6 20 -7 0c-3,-1 -10,-26 -11,-30l7 0 7 20zm239 -15l0 2 6 0 0 6 -6 0c0,2 1,16 0,17l-7 0 0 -17 -3 -1 0 -4c0,-1 -1,-1 1,-1l2 0 1 -2c0,-7 8,-10 14,-6l-2 4c-3,0 -5,-1 -6,2zm-364 -174l43 0 0 147 -43 0 0 -147zm445 3l0 -36c2,0 40,0 43,0l0 36 36 0c0,1 1,31 0,33l-36 0c-1,4 0,52 0,60 0,17 11,22 25,18 5,-1 7,-3 10,-4l11 29c-8,8 -30,11 -43,9 -62,-6 -43,-68 -46,-112l-23 0 1 -33 22 0zm-153 14c12,-12 26,-20 50,-19 22,0 38,9 47,22 12,16 12,33 12,57 0,23 0,47 0,70l-42 0c0,-24 0,-49 0,-73 0,-24 -7,-41 -33,-39 -22,1 -32,17 -33,39 0,24 0,49 0,73l-42 0 0 -147 40 0 1 17zm-214 -2c13,-10 38,-17 58,-17 24,-1 45,4 58,16 16,14 18,31 18,58 0,25 0,50 0,75l-40 0 0 -18c-2,2 -4,6 -9,10 -24,17 -81,13 -89,-25 -6,-25 8,-41 25,-48 20,-8 48,-6 71,-6 -1,-19 -12,-27 -31,-28 -16,-1 -36,4 -45,13 -1,-1 -15,-27 -16,-30zm-421 -67c20,-4 36,7 43,17 18,25 18,64 22,69 5,5 4,3 12,4 4,0 9,1 12,2 24,8 26,40 9,61 -4,5 -5,13 -9,21 -4,10 -7,12 -12,18 -8,8 -15,16 -24,22 -2,2 -7,5 -9,6 -4,6 -5,16 -12,19 -3,0 -10,0 -14,1 -14,2 -17,7 -38,7 -8,0 -20,-2 -27,-4 -13,-3 -15,-6 -17,-21 0,-3 1,-6 -1,-6 -3,-1 -25,-2 -39,-7 -8,-4 -10,-8 -13,-17 -2,-4 -5,-6 -4,-11 1,-8 6,-14 12,-19 6,-4 4,0 7,-8 1,-3 3,-7 5,-10 5,-5 6,-5 8,-7 1,-1 1,-8 4,-11 12,-18 35,-14 43,-18 3,-2 6,-5 4,-10 -2,-6 -9,-11 -2,-23 6,-12 -3,-8 1,-24 5,-22 12,-46 39,-51zm305 178c-12,10 -36,19 -55,22 -67,11 -130,-29 -127,-103 4,-72 74,-105 137,-89 10,3 20,7 28,11 6,4 17,13 20,18l-28 26c-5,-3 -10,-12 -27,-18 -12,-4 -26,-4 -39,-1 -56,13 -59,85 -21,110 10,6 21,10 35,10 12,1 28,-2 37,-8l0 -56 40 0 0 78zm56 -194c37,-4 40,43 7,47 -37,4 -41,-44 -7,-47zm492 1c15,-4 21,20 5,23 -15,4 -21,-19 -5,-23zm-971 314l1028 0c2,-2 9,-1 12,-1 13,-1 22,-2 35,-5 9,-2 20,-5 28,-10 4,-3 4,-4 6,-7 2,-2 1,-232 1,-273 0,-8 1,-34 -1,-39 -2,-3 -2,-4 -6,-6 -11,-8 -31,-12 -44,-14 -4,-1 -20,-2 -21,-3l-1047 0c-2,1 -31,2 -54,11 -6,2 -17,7 -18,13 -1,6 0,25 0,32l0 271c0,7 0,9 4,12 11,11 46,17 62,18 4,0 12,-1 15,1z"/>
   <path class="fil1" d="M82 358c-3,-2 -11,-1 -15,-1 -16,-1 -51,-7 -62,-18 -4,-3 -4,-5 -4,-12l0 -271c0,-7 -1,-26 0,-32 1,-6 12,-11 18,-13 23,-9 52,-10 54,-11 -10,0 -21,0 -31,0 -13,0 -20,-1 -29,4 -8,5 -11,12 -13,21l0 30 0 256 0 23c1,2 1,5 2,7 3,8 9,13 17,16 1,0 5,1 9,1l54 0z"/>
   <path class="fil1" d="M1110 358l8 0c15,0 29,0 43,0l1 0c11,0 14,-1 20,-6 4,-3 9,-11 9,-17 -2,3 -2,4 -6,7 -8,5 -19,8 -28,10 -13,3 -22,4 -35,5 -3,0 -10,-1 -12,1z"/>
   <path class="fil1" d="M1191 23c0,-11 -12,-22 -24,-23 -16,0 -32,0 -47,0 1,1 17,2 21,3 13,2 33,6 44,14 4,2 4,3 6,6z"/>
   <rect class="fil0" x="642" y="275" width="465.641" height="54.8453"/>
   <rect class="fil0" x="48" y="34" width="1087" height="281"/>
   <path class="fil2" d="M505 254l0 -86 -44 0 0 62c-10,6 -27,10 -41,9 -16,0 -28,-5 -39,-12 -42,-27 -38,-107 23,-122 15,-3 30,-2 44,2 18,6 24,16 30,20l31 -29c-3,-5 -16,-15 -23,-20 -9,-5 -19,-9 -31,-12 -69,-18 -147,19 -151,99 -4,81 66,126 140,114 22,-3 48,-14 61,-25z"/>
   <path class="fil3" d="M871 133l0 -18 -45 0 0 162 47 0c0,-26 0,-53 0,-80 0,-25 12,-43 36,-44 29,-2 36,17 36,44 0,27 0,54 0,80l48 0c0,-25 0,-51 0,-77 0,-26 0,-45 -14,-64 -9,-13 -27,-24 -52,-24 -27,-1 -43,9 -56,21z"/>
   <path class="fil3" d="M735 210c6,40 -39,45 -55,32 -4,-3 -7,-11 -5,-18 1,-7 6,-11 12,-12 12,-4 35,-2 48,-2zm-100 -78c0,2 15,31 17,33 10,-10 32,-16 50,-15 21,1 33,10 34,31 -25,0 -57,-2 -78,7 -19,7 -35,25 -29,53 10,43 73,47 99,28 6,-4 9,-9 11,-11l0 19 44 0c0,-27 0,-55 0,-83 0,-30 -3,-48 -20,-64 -15,-14 -38,-19 -65,-18 -22,1 -50,8 -63,20z"/>
   <path class="fil3" d="M1041 118l-25 0 0 36 25 1c3,48 -17,117 51,124 15,2 39,-1 48,-10l-12 -32c-4,1 -6,3 -11,4 -16,4 -28,-2 -28,-20 -1,-9 -1,-62 0,-67l40 0 0 -36c-7,0 -37,1 -40,0 -1,-2 -1,-38 -1,-39l-47 0 1 37c-1,3 -1,1 -1,2z"/>
   <polygon class="fil3" points="547,277 595,277 595,115 547,115 "/>
   <path class="fil3" d="M568 39c-38,4 -33,56 7,52 37,-4 33,-56 -7,-52z"/>
   <path class="fil4" d="M735 210c-13,0 -36,-2 -48,2 -6,1 -11,5 -12,12 -2,7 1,15 5,18 16,13 61,8 55,-32z"/>
   <path class="fil5" d="M1110 46c4,0 10,0 11,3 1,4 -1,4 -3,5 2,2 3,4 4,6l-3 1c-1,-4 -2,-7 -6,-6l0 6 -3 0 0 -15zm4 -4c-14,3 -10,25 4,22 13,-2 11,-25 -4,-22z"/>
   <path class="fil3" d="M1114 42c15,-3 17,20 4,22 -14,3 -18,-19 -4,-22zm-1 -2c-17,5 -11,30 6,26 17,-4 11,-30 -6,-26z"/>
   <path class="fil3" d="M1113 48c3,0 3,0 6,1 0,4 -2,4 -6,3l0 -4zm-3 13l3 0 0 -6c4,-1 5,2 6,6l3 -1c-1,-2 -2,-4 -4,-6 2,-1 4,-1 3,-5 -1,-3 -7,-3 -11,-3l0 15z"/>
   <path class="fil6" d="M1041 118c0,-1 0,1 1,-2l-1 -37 47 0c0,1 0,37 1,39l0 -40c-4,0 -46,0 -48,0l0 40z"/>
   <path class="fil7" d="M1129 154c1,-2 0,-34 0,-36l-40 0c3,1 33,0 40,0l0 36z"/>
   <path class="fil5" d="M1113 52c4,1 6,1 6,-3 -3,-1 -3,-1 -6,-1l0 4z"/>
   <g>
    <path class="fil8" d="M149 186l1 0c0,3 0,0 -1,1l-2 2c11,-4 24,-7 37,-6 -9,5 -12,7 -18,15 -6,1 -19,0 -26,1 -7,0 -20,2 -25,2 1,-3 9,-9 13,-11 5,-1 16,-3 21,-4zm71 -3c8,2 27,6 28,12 -21,-9 -35,-8 -57,2 -4,2 -14,5 -19,1 2,-4 12,-8 18,-11 9,-3 16,-3 24,-5l-3 -1c2,-5 16,-18 23,-19 -3,3 -3,1 -9,9 -2,3 -5,8 -5,12zm-117 50c0,0 -1,0 -2,-1 1,0 -1,-1 2,0 9,1 31,7 39,11 12,5 25,11 41,10 -1,-2 -3,-3 -3,-6 -1,-1 -1,-1 -1,-3l3 1c16,0 32,6 49,-5 11,-8 16,-22 31,-27l-3 7c12,-9 24,-37 17,-54 -3,-8 -8,-10 -11,-14 16,2 21,17 20,34 -2,19 -9,28 -18,37 -8,8 -20,18 -32,24 -31,16 -39,7 -44,10l8 5c-17,5 -39,-2 -53,-8 -13,-6 -29,-18 -43,-21zm110 -107c-7,-16 22,-26 15,-5 -1,4 -3,8 -6,9 1,-4 4,-9 1,-14 -1,1 0,2 -2,3 -1,1 -2,1 -3,2 -2,1 -3,4 -5,5zm-76 28c-1,1 0,1 -2,1l0 0c1,-1 1,-1 1,-1 9,-2 14,-4 24,-4 9,0 18,3 24,3l1 0c-7,-4 -18,-6 -26,-5 -5,0 -23,3 -25,5 -1,-7 6,-12 7,-16 -2,-4 -10,-7 -4,-13l8 1c0,1 -7,7 0,12 -1,-4 -2,-7 1,-9 3,-1 7,1 12,0 4,-1 7,-2 9,2 0,3 -2,6 -3,7l-1 1c4,-1 3,-4 8,-4 3,0 5,2 8,2 -1,-3 -5,-3 -8,-4 -3,-9 -3,-7 -16,-6 2,-3 1,0 3,-5 1,-2 2,-3 2,-6 -6,6 -3,3 -10,2 -5,0 -10,2 -14,2 -1,-4 2,-9 4,-11 2,-3 11,-2 15,-2 8,0 14,-7 25,-8 18,-2 28,12 19,25 -4,4 -7,5 -9,8 6,6 12,12 9,25 -5,28 -68,32 -66,2 9,-3 17,-4 27,-5 -8,-1 -16,2 -23,1zm31 -108c-31,6 -39,32 -45,57 -4,18 7,13 -1,27 -7,13 0,18 3,25 2,5 -1,9 -5,11 -8,5 -33,0 -47,20 -3,4 -4,11 -5,12 -2,3 -3,2 -8,8 -2,3 -5,8 -6,11 -3,9 -2,5 -8,10 -6,4 -12,11 -13,20 -1,5 2,8 4,12 3,10 6,15 15,19 15,6 40,7 42,8 3,0 2,4 2,7 2,16 4,20 18,23 8,3 22,4 31,4 23,1 27,-6 42,-8 4,0 13,0 16,-1 8,-3 8,-14 13,-20 2,-2 8,-5 10,-7 10,-7 18,-16 26,-25 6,-7 9,-9 14,-20 4,-8 5,-17 10,-23 18,-23 16,-58 -10,-68 -4,-1 -9,-2 -14,-2 -9,-1 -7,1 -12,-4 -6,-6 -5,-49 -25,-77 -8,-10 -26,-23 -47,-19z"/>
    <path class="fil3" d="M165 114c0,0 -1,6 5,4 6,-2 10,-11 20,-7l-3 0c2,3 5,3 6,6 -3,4 -11,6 -18,5 -4,-1 -7,1 -10,-1 -3,-1 -4,-5 0,-7zm-2 24c0,0 1,1 0,0 0,-2 -1,0 1,-1 1,-1 3,-4 3,-7 -2,-4 -5,-3 -9,-2 -5,1 -9,-1 -12,0 -3,2 -2,5 -1,9 -7,-5 0,-11 0,-12l-8 -1c-6,6 2,9 4,13 -1,4 -8,9 -7,16 2,-2 20,-5 25,-5 8,-1 19,1 26,5l-1 0c-6,0 -15,-3 -24,-3 -10,0 -15,2 -24,4l1 0c7,1 15,-2 23,-1 -10,1 -18,2 -27,5 -2,30 61,26 66,-2 3,-13 -3,-19 -9,-25 2,-3 5,-4 9,-8 9,-13 -1,-27 -19,-25 -11,1 -17,8 -25,8 -4,0 -13,-1 -15,2 -2,2 -5,7 -4,11 4,0 9,-2 14,-2 7,1 4,4 10,-2 0,3 -1,4 -2,6 -2,5 -1,2 -3,5 13,-1 13,-3 16,6 3,1 7,1 8,4 -3,0 -5,-2 -8,-2 -5,0 -4,3 -8,4z"/>
    <path class="fil3" d="M182 245l-3 0 1 2c0,3 2,4 3,6 -16,1 -29,-5 -41,-10 -8,-4 -30,-10 -39,-11l0 1c14,3 30,15 43,21 14,6 36,13 53,8l-8 -5c5,-3 13,6 44,-10 12,-6 24,-16 32,-24 9,-9 16,-18 18,-37 1,-17 -4,-32 -20,-34 3,4 8,6 11,14 7,17 -5,45 -17,54l3 -7c-15,5 -20,19 -31,27 -17,11 -33,5 -49,5z"/>
    <path class="fil3" d="M149 187c0,-1 0,0 0,-1 -5,1 -16,3 -21,4 -4,2 -12,8 -13,11 5,0 18,-2 25,-2 7,-1 20,0 26,-1 6,-8 9,-10 18,-15 -13,-1 -26,2 -37,6l2 -2z"/>
    <path class="fil3" d="M220 183c0,-4 3,-9 5,-12 6,-8 6,-6 9,-9 -7,1 -21,14 -23,19l3 1c-8,2 -15,2 -24,5 -6,3 -16,7 -18,11 5,4 15,1 19,-1 22,-10 36,-11 57,-2 -1,-6 -20,-10 -28,-12z"/>
    <path class="fil8" d="M165 114c-4,2 -3,6 0,7 3,2 6,0 10,1 7,1 15,-1 18,-5 -1,-3 -4,-3 -6,-6l3 0c-10,-4 -14,5 -20,7 -6,2 -5,-4 -5,-4z"/>
    <path class="fil3" d="M213 126c2,-1 3,-4 5,-5 1,-1 2,-1 3,-2 2,-1 1,-2 2,-3 3,5 0,10 -1,14 3,-1 5,-5 6,-9 7,-21 -22,-11 -15,5z"/>
    <path class="fil9" d="M180 247l-1 -2 3 0 -3 -1c0,2 0,2 1,3z"/>
    <path class="fil10" d="M137 154l-1 0c0,0 0,0 -1,1l0 0c2,0 1,0 2,-1z"/>
    <path class="fil11" d="M163 138l1 -1c-2,1 -1,-1 -1,1 1,1 0,0 0,0z"/>
    <path class="fil12" d="M149 187c1,-1 1,2 1,-1l-1 0c0,1 0,0 0,1z"/>
    <path class="fil13" d="M103 233l0 -1c-3,-1 -1,0 -2,0 1,1 2,1 2,1z"/>
    <polygon class="fil14" points="184,153 185,153 "/>
   </g>
  </g>
 </g>
</svg>
